<svg xmlns="http://www.w3.org/2000/svg" xmlns:xlink="http://www.w3.org/1999/xlink" viewBox="0 0 1078.27 829.4"><defs><style>.cls-1{fill:#ffdaca;}.cls-2{fill:#fbb03b;}.cls-17,.cls-3{fill:#fff;}.cls-4{fill:#0071bc;}.cls-5{fill:#2e3192;}.cls-6{fill:#29abe2;}.cls-7{fill:#39b54a;}.cls-8{fill:#8c6239;}.cls-9{fill:#754c24;}.cls-10{fill:url(#radial-gradient);}.cls-11{fill:#fcee21;}.cls-12{fill:#f7931e;}.cls-13{fill:#f15a24;}.cls-14{fill:#603813;}.cls-15{fill:#ed1c24;}.cls-16{fill:#ed1e45;}.cls-17{opacity:0.45;}</style><radialGradient id="radial-gradient" cx="342.58" cy="579.44" r="154.4" gradientUnits="userSpaceOnUse"><stop offset="0" stop-color="#fff"/><stop offset="0.15" stop-color="#fef2e0"/><stop offset="0.74" stop-color="#fcc36a"/><stop offset="1" stop-color="#fbb03b"/></radialGradient></defs><title>Asset 2</title><g id="Layer_2" data-name="Layer 2"><g id="Layer_1-2" data-name="Layer 1"><polygon class="cls-1" points="0 4.73 0 828.41 1078.27 828.41 1078.27 768.51 1078.27 558.84 1078.27 4.73 0 4.73"/><rect class="cls-2" x="750.37" y="118.68" width="191.42" height="191.42" rx="12" ry="12"/><rect class="cls-3" x="769.97" y="138.86" width="152.22" height="152.22" rx="12" ry="12"/><rect class="cls-4" x="823.84" y="189.53" width="85.2" height="8.83" rx="1.18" ry="1.18" transform="translate(116.64 669.47) rotate(-45)"/><rect class="cls-5" x="839.36" y="143.25" width="3.53" height="97.09" rx="0.47" ry="0.47"/><rect class="cls-6" x="827.33" y="221.91" width="66" height="15.45" rx="2.06" ry="2.06" transform="translate(414.36 -541.09) rotate(45)"/><circle class="cls-7" cx="844.88" cy="215.19" r="9.05"/><rect class="cls-8" y="611.26" width="1078.27" height="217.15"/><circle class="cls-5" cx="845.08" cy="215.25" r="5.74"/><rect class="cls-8" x="228.38" y="4.73" width="217.15" height="411.84"/><rect class="cls-9" x="123.55" y="416.57" width="438.05" height="325.73" rx="12" ry="12"/><rect class="cls-10" x="167.36" y="449.14" width="350.44" height="260.58" rx="12" ry="12"/><path class="cls-11" d="M340.7,473.48c0,53.91,121.31,195.44,0,195.44s20.22-195.44,0-208.92Z"/><path class="cls-2" d="M340.7,500.66c0,43.13,97.05,156.35,0,156.35s16.18-156.35,0-167.13Z"/><path class="cls-12" d="M340.7,519.71c0,34.51,77.64,125.08,0,125.08s12.94-125.08,0-133.7Z"/><path class="cls-13" d="M340.7,535.85c0,27.6,62.11,100.06,0,100.06s10.36-100.06,0-107Z"/><rect class="cls-14" x="336.96" y="633.72" width="11.23" height="63.65" rx="1.5" ry="1.5"/><rect class="cls-14" x="314.5" y="637.47" width="11.23" height="63.65" rx="1.5" ry="1.5" transform="translate(251.35 -69.42) rotate(20.24)"/><rect class="cls-14" x="363.17" y="637.47" width="11.23" height="63.65" rx="1.5" ry="1.5" transform="translate(946.36 1169.65) rotate(159.76)"/><rect class="cls-14" x="292.03" y="637.47" width="11.23" height="63.65" rx="1.5" ry="1.5" transform="translate(423.68 -52.28) rotate(33.88)"/><rect class="cls-14" x="385.63" y="637.47" width="11.23" height="63.65" rx="1.5" ry="1.5" transform="translate(1089.18 1006.8) rotate(146.12)"/><path class="cls-15" d="M340.7,566.1c0,17.66,39.75,64,0,64s6.63-64,0-68.46Z"/><path class="cls-16" d="M967.82,611.26c-160.25,0-290.16,48.61-290.16,108.58S807.57,828.41,967.82,828.41a729.22,729.22,0,0,0,110.45-8.16V619.42A729.22,729.22,0,0,0,967.82,611.26Z"/><line class="cls-1" x1="228.38" y1="62.76" x2="445.54" y2="62.76"/><line class="cls-1" x1="228.38" y1="118.68" x2="445.54" y2="118.68"/><line class="cls-1" x1="228.38" y1="176.96" x2="445.54" y2="176.96"/><line class="cls-1" x1="228.38" y1="222.51" x2="445.54" y2="222.51"/><line class="cls-1" x1="228.38" y1="264.94" x2="445.54" y2="264.94"/><line class="cls-1" x1="228.38" y1="310.11" x2="445.54" y2="310.11"/><line class="cls-1" x1="228.38" y1="345.44" x2="445.54" y2="345.44"/><line class="cls-1" x1="228.38" y1="381" x2="445.54" y2="381"/><line class="cls-1" x1="269.57" y1="0.99" x2="269.57" y2="416.57"/><line class="cls-1" x1="321.98" y1="4.73" x2="321.98" y2="416.57"/><line class="cls-1" x1="368.31" y1="4.73" x2="368.31" y2="416.57"/><line class="cls-1" x1="409.97" y1="4.73" x2="409.97" y2="416.57"/><path class="cls-11" d="M997.21,643.83c-112.17,0-203.11,34-203.11,76s90.94,76,203.11,76a509.93,509.93,0,0,0,77.32-5.72V649.55A509.93,509.93,0,0,0,997.21,643.83Z"/><path class="cls-16" d="M1020.41,666.63c-78.52,0-142.18,23.82-142.18,53.21S941.89,773,1020.41,773a357.77,357.77,0,0,0,54.12-4V670.63A357.77,357.77,0,0,0,1020.41,666.63Z"/><rect class="cls-17" x="0.94" width="1076.4" height="829.4"/></g></g></svg>