<svg xmlns="http://www.w3.org/2000/svg" viewBox="0 0 788.2 1014.83"><defs><style>.cls-1{fill:#0071bc;}.cls-2{fill:#2e3192;}.cls-3{fill:#29abe2;}.cls-4{fill:#fff;}.cls-5{fill:#39b54a;}.cls-6{fill:#1b1464;}</style></defs><title>Asset 1</title><g id="Layer_2" data-name="Layer 2"><g id="Layer_1-2" data-name="Layer 1"><rect class="cls-1" x="-98.83" y="419.41" width="772.16" height="80" rx="40" ry="40" transform="translate(-240.72 337.67) rotate(-45)"/><rect class="cls-2" x="41.83" width="32" height="880" rx="16" ry="16"/><rect class="cls-3" x="-67.19" y="712.91" width="598.21" height="140" rx="70" ry="70" transform="translate(621.53 65.32) rotate(45)"/><circle class="cls-4" cx="91.83" cy="652" r="82"/><path class="cls-5" d="M70.26,592.65c86-44.61,125.54,80.88,59.68,115-33.69,14.56-57.61-34.35-30.13-57.37,20-20.59,4.67-75.42-31-56.92"/><path class="cls-5" d="M114.89,711.35c-86,44.61-125.54-80.88-59.68-115,33.69-14.56,57.61,34.35,30.13,57.37-20,20.59-4.68,75.42,31,56.92"/><path class="cls-6" d="M448.94,761H375.7V531.77h20.36V743h52.88Z"/><path class="cls-6" d="M616.57,536.29c-4.68-3-10.72-4.52-18.12-4.52H501.89c-7.4,0-13.44,1.52-18.12,4.52s-7,7-7,11.72V744.77c0,4.76,2.36,8.68,7,11.72S494.49,761,501.89,761h96.56c7.4,0,13.44-1.52,18.12-4.52s7-7,7-11.72V548C623.57,543.25,621.25,539.33,616.57,536.29ZM603.21,743l-51.64.6h-2.8l-51.64-.6V549.77H603.21Z"/><path class="cls-6" d="M717.61,642.22,665.76,533.08v-1.31h22.12l48,103v16.12L683,761H660.63Z"/><path class="cls-3" d="M562.49,644.93l41.08,86.68a10.38,10.38,0,0,1-17.68,10.16l-42.32-90.68V638.73l42.32-90.68c2.72-5.27,9.17-7.06,13.68-4.44a10,10,0,0,1,4,12Z"/><path class="cls-3" d="M746.49,644.93l41.08,86.68a10.38,10.38,0,0,1-17.68,10.16l-42.32-90.68V638.73l42.32-90.68c2.72-5.27,9.17-7.06,13.68-4.44a10,10,0,0,1,4,12Z"/><circle class="cls-5" cx="555.57" cy="643.61" r="16"/><circle class="cls-5" cx="739.57" cy="643.61" r="16"/></g></g></svg>