<svg xmlns="http://www.w3.org/2000/svg" viewBox="0 0 221.79 391.73"><defs><style>.cls-1{fill:#0071bc;}.cls-2{fill:#2e3192;}.cls-3{fill:#29abe2;}.cls-4{fill:#fff;}.cls-5{fill:#39b54a;}</style></defs><title>Asset 2</title><g id="Layer_2" data-name="Layer 2"><g id="Layer_1-2" data-name="Layer 1"><rect class="cls-1" x="-37.03" y="161.47" width="297.28" height="30.8" rx="14" ry="14" transform="translate(-92.38 130.72) rotate(-45)"/><rect class="cls-2" x="17.12" width="12.32" height="338.8" rx="5.6" ry="5.6"/><rect class="cls-3" x="-24.85" y="274.47" width="230.31" height="53.9" rx="24.5" ry="24.5" transform="translate(239.59 24.43) rotate(45)"/><circle class="cls-4" cx="36.37" cy="251.02" r="31.57"/><path class="cls-5" d="M28.07,228.17C61.18,211,76.4,259.31,51,272.46c-13,5.61-22.17-13.23-11.59-22.09,7.69-7.92,1.79-29-11.94-21.91"/><path class="cls-5" d="M45.25,273.87c-33.11,17.17-48.33-31.14-23-44.29,13-5.61,22.18,13.23,11.6,22.09-7.69,7.92-1.8,29,11.93,21.91"/></g></g></svg>