<svg xmlns="http://www.w3.org/2000/svg" viewBox="0 0 203.25 88.26"><defs><style>.cls-1{fill:#29abe2;}.cls-2{fill:#1b1464;}.cls-3{fill:#39b54a;}</style></defs><title>Asset 3</title><g id="Layer_2" data-name="Layer 2"><g id="Layer_1-2" data-name="Layer 1"><path class="cls-1" d="M14.71,43.57,30.53,76.94a4,4,0,0,1-6.81,3.91L7.43,45.94V41.18L23.72,6.27A3.87,3.87,0,0,1,29,4.56a3.84,3.84,0,0,1,1.54,4.62Q22.63,26.37,14.71,43.57Z"/><path class="cls-2" d="M72.64,88.26H44.44V0h7.84V81.32H72.64Z"/><path class="cls-2" d="M137.18,1.74a12.8,12.8,0,0,0-7-1.74H93a12.74,12.74,0,0,0-7,1.74,5.25,5.25,0,0,0-2.7,4.51V82a5.25,5.25,0,0,0,2.7,4.51,12.74,12.74,0,0,0,7,1.74H130.2a12.8,12.8,0,0,0,7-1.74A5.22,5.22,0,0,0,139.87,82V6.25A5.22,5.22,0,0,0,137.18,1.74ZM132,81.33l-19.88.23h-1.08l-19.88-.23V6.93H132Z"/><path class="cls-2" d="M176.08,42.52l-20-42V0h8.52l18.5,39.65v6.2L162.77,88.26h-8.63Z"/><path class="cls-2" d="M7.84,88.26H0V0H7.84Z"/><circle class="cls-3" cx="12.05" cy="43.06" r="6.16"/><path class="cls-1" d="M116.35,43.57l15.82,33.37a4,4,0,0,1-6.81,3.91L109.07,45.94V41.18L125.36,6.27a3.87,3.87,0,0,1,5.27-1.71,3.84,3.84,0,0,1,1.54,4.62Q124.27,26.37,116.35,43.57Z"/><path class="cls-1" d="M187.19,43.57,203,76.94a4,4,0,0,1-6.81,3.91L179.91,45.94V41.18L196.2,6.27a3.87,3.87,0,0,1,5.27-1.71A3.84,3.84,0,0,1,203,9.18Q195.11,26.37,187.19,43.57Z"/><circle class="cls-3" cx="113.69" cy="43.06" r="6.16"/><circle class="cls-3" cx="184.53" cy="43.06" r="6.16"/></g></g></svg>